Coordinates
version=1
nRows=17
nColumns=40
inDegrees=yes

Units are S.I. units (second, meters, Newtons, ...)
Angles are in degrees.

endheader
time	pelvis_tilt	pelvis_list	pelvis_rotation	pelvis_tx	pelvis_ty	pelvis_tz	hip_flexion_r	hip_adduction_r	hip_rotation_r	knee_angle_r	knee_angle_r_beta	ankle_angle_r	subtalar_angle_r	mtp_angle_r	hip_flexion_l	hip_adduction_l	hip_rotation_l	knee_angle_l	knee_angle_l_beta	ankle_angle_l	subtalar_angle_l	mtp_angle_l	lumbar_extension	lumbar_bending	lumbar_rotation	arm_flex_r	arm_add_r	arm_rot_r	elbow_flex_r	pro_sup_r	wrist_flex_r	wrist_dev_r	arm_flex_l	arm_add_l	arm_rot_l	elbow_flex_l	pro_sup_l	wrist_flex_l	wrist_dev_l
     44.03250000	     -3.96081641	     -5.01725759	      6.03088346	      1.08222354	      0.92482467	      0.42732848	      1.61950879	     -1.24970234	    -16.65965988	     23.03277287	     23.03277287	     15.02051726	     -3.18671939	     -7.43073949	     25.32859074	     -6.03893421	     -1.84668333	     25.74933621	     25.74933621	      7.88843173	    -13.75167805	      3.49803642	     -8.01097204	      4.43181575	      4.04322599	     26.91813891	    -16.85793223	    -10.95643283	     68.38140074	     40.15213429	      0.00000000	      0.00000000	      1.33392638	     -9.58478476	     -0.60739572	     29.00148252	     40.48797668	      0.00000000	      0.00000000
     44.04628571	     -3.94916000	     -4.88546244	      5.75640956	      1.08265159	      0.92559222	      0.42406806	      2.69025374	     -2.03940157	    -16.06247041	     25.68418222	     25.68418222	     13.63593886	     -4.73149534	    -10.14524379	     24.69102249	     -5.85298596	     -2.32079834	     25.57378631	     25.57378631	      8.23869529	    -13.56830086	      3.14579511	     -7.97567684	      4.21089939	      3.51218073	     26.38298621	    -16.57530878	     -9.08119532	     63.96058235	     40.65495917	      0.00000000	      0.00000000	      2.14453685	    -10.05405871	     -1.93102072	     29.15516311	     41.13894902	      0.00000000	      0.00000000
     44.06007143	     -3.86369192	     -4.74002339	      5.41753658	      1.08286236	      0.92638515	      0.42085674	      4.04351417	     -2.95230944	    -15.47654710	     29.02176611	     29.02176611	     12.81850609	     -5.77332790	    -10.88790308	     23.94737764	     -5.66906515	     -2.86003972	     25.34961591	     25.34961591	      8.56659875	    -13.38487752	      2.97279959	     -8.16259348	      4.09794232	      3.85255216	     24.77492807	    -16.57415037	     -8.62856201	     62.25441425	     40.74182600	      0.00000000	      0.00000000	      3.40209912	    -10.24923961	     -2.12336919	     29.73526124	     41.23422954	      0.00000000	      0.00000000
     44.07385714	     -3.87435444	     -4.80388150	      5.05455575	      1.08289584	      0.92694971	      0.41801871	      5.59731660	     -3.42961435	    -14.35059878	     32.21179574	     32.21179574	     10.88600419	     -8.21757599	    -13.24231066	     23.39277048	     -5.69636333	     -3.23994872	     25.19413827	     25.19413827	      8.81330143	    -13.35260572	      2.46872300	     -8.07470454	      4.11344671	      3.87883176	     24.22330629	    -16.59008409	     -6.78262245	     57.11835592	     41.10320142	      0.00000000	      0.00000000	      4.72388458	    -10.53225070	     -2.66424026	     29.61196579	     41.58987670	      0.00000000	      0.00000000
     44.08764286	     -3.79640624	     -4.60724255	      4.73461043	      1.08280227	      0.92744177	      0.41501461	      7.32037353	     -4.40295951	    -13.68347699	     36.01810639	     36.01810639	      9.58539464	     -9.28684208	    -13.86099517	     22.71032600	     -5.43519733	     -3.71495583	     25.02340973	     25.02340973	      9.14318142	    -13.22170710	      2.27379500	     -8.28400287	      3.89293764	      3.83086531	     22.60269822	    -16.31095658	     -6.26418392	     55.58273365	     41.17137956	      0.00000000	      0.00000000	      5.90804189	    -11.03288511	     -2.85868772	     30.12943011	     41.67553563	      0.00000000	      0.00000000
     44.10142857	     -3.83872488	     -4.48390077	      4.36002763	      1.08243850	      0.92764151	      0.41230632	      9.34635665	     -5.16924689	    -12.67269344	     39.89463472	     39.89463472	      7.90286834	    -10.85998422	    -14.30853086	     22.22133273	     -5.26033685	     -4.15791276	     24.91136854	     24.91136854	      9.41313612	    -13.20139963	      2.05628362	     -8.34644676	      3.74789257	      4.05962527	     20.97087945	    -16.26112980	     -5.57114158	     53.32514989	     41.26668418	      0.00000000	      0.00000000	      7.20874359	    -11.44732043	     -3.05025996	     30.64668645	     41.76878390	      0.00000000	      0.00000000
     44.11521429	     -3.75871604	     -4.38164538	      4.01041101	      1.08197584	      0.92788148	      0.40972149	     11.31606968	     -5.82741778	    -11.64007250	     43.74191751	     43.74191751	      6.02461849	    -12.40558029	    -14.45125194	     21.66848852	     -5.11737431	     -4.55505535	     24.89305272	     24.89305272	      9.67225598	    -13.19737052	      1.83003981	     -8.54399179	      3.63723078	      4.13662105	     19.44135179	    -16.07344883	     -4.85265287	     51.06072730	     41.35631202	      0.00000000	      0.00000000	      8.57377400	    -11.92828455	     -3.21942020	     31.10676503	     41.85456497	      0.00000000	      0.00000000
     44.12900000	     -3.70307565	     -4.36205276	      3.68902773	      1.08139600	      0.92800453	      0.40742667	     13.34457684	     -6.26254274	    -10.53717510	     47.44427874	     47.44427874	      4.08391207	    -13.85442043	    -14.24503822	     21.17351360	     -5.05793905	     -4.86752600	     24.87743652	     24.87743652	      9.99283722	    -13.19290344	      1.56605434	     -8.67494909	      3.59616711	      4.17307269	     17.95627848	    -15.86916790	     -4.07680067	     48.58284301	     41.45460955	      0.00000000	      0.00000000	      9.92187865	    -12.39982081	     -3.38767365	     31.52514544	     41.94277411	      0.00000000	      0.00000000
     44.14278571	     -3.63884738	     -4.37257734	      3.36166313	      1.08075921	      0.92813787	      0.40521694	     15.36753298	     -6.57615162	     -9.40982846	     50.94176435	     50.94176435	      2.18015339	    -14.99848719	    -13.56038039	     20.69697219	     -5.04174872	     -5.18370144	     24.90849776	     24.90849776	     10.29725238	    -13.16611925	      1.29130709	     -8.82052406	      3.61778749	      4.11720387	     16.55147957	    -15.64055137	     -3.25159837	     45.89170845	     41.56581958	      0.00000000	      0.00000000	     11.29082146	    -12.87529242	     -3.57050405	     31.93034717	     42.03995653	      0.00000000	      0.00000000
     44.15657143	     -3.48042853	     -4.46079139	      3.09653232	      1.08007970	      0.92841838	      0.40324740	     17.33572551	     -6.73228107	     -8.43127235	     54.42597749	     54.42597749	      1.64417044	    -14.97898508	     -9.25223700	     20.16520660	     -5.12692405	     -5.48124996	     24.96421413	     24.96421413	     10.48133954	    -13.16432714	      0.78253954	     -8.93966454	      3.71605081	      2.86442160	     17.38886910	    -14.79721564	     -0.08717003	     38.96139187	     42.24464338	      0.00000000	      0.00000000	     11.83592294	    -13.65907440	     -5.22610481	     32.69778338	     42.84110306	      0.00000000	      0.00000000
     44.17035714	     -3.38795185	     -4.44569620	      2.81186803	      1.07935826	      0.92861482	      0.40135172	     19.18470633	     -6.94288671	     -7.47668414	     57.26435748	     57.26435748	      0.07568380	    -15.46195575	     -8.62237667	     19.68105629	     -5.09682282	     -5.81950268	     25.00684476	     25.00684476	     10.81251294	    -13.06867997	      0.62893954	     -9.12328479	      3.75121474	      2.75138179	     15.49225949	    -14.54448599	      0.16671708	     37.79489845	     42.30800732	      0.00000000	      0.00000000	     13.14144668	    -14.23698418	     -5.41872828	     33.28054423	     42.92770444	      0.00000000	      0.00000000
     44.18414286	     -3.23567162	     -4.56708979	      2.57240671	      1.07865649	      0.92894140	      0.39978272	     20.97353747	     -6.92501976	     -6.67625533	     59.95924432	     59.95924432	     -0.01689778	    -14.98620538	     -4.54670685	     19.17767356	     -5.25047062	     -6.12783197	     25.11461978	     25.11461978	     11.28520217	    -12.77619984	      0.59347794	     -9.35054158	      3.85893557	      2.62408639	     13.98579733	    -14.15929952	      0.40610600	     35.41881680	     42.71020270	      0.00000000	      0.00000000	     14.52156232	    -14.75175553	     -5.90230526	     33.75542082	     43.33181757	      0.00000000	      0.00000000
     44.19792857	     -3.07312141	     -4.66717486	      2.34235586	      1.07797126	      0.92944398	      0.39832363	     22.45540668	     -6.89883721	     -6.01995740	     61.84418288	     61.84418288	     -1.06957615	    -15.00993938	     -4.32405807	     18.59473401	     -5.34169480	     -6.35629997	     25.07354495	     25.07354495	     11.55755660	    -12.74329027	      0.52216568	     -9.59641138	      3.98150262	      2.23390072	     12.13957385	    -13.78709546	      0.53353035	     34.59517203	     42.74375789	      0.00000000	      0.00000000	     15.64455009	    -15.54744443	     -6.08385577	     34.33567455	     43.39184812	      0.00000000	      0.00000000
     44.21171429	     -3.04519533	     -4.76593064	      2.05254037	      1.07720630	      0.92984186	      0.39706287	     24.01095850	     -6.79011794	     -5.36421820	     63.32983379	     63.32983379	     -1.71591408	    -14.91865747	     -3.77142860	     18.12347436	     -5.46015552	     -6.69445702	     24.98768790	     24.98768790	     11.87516291	    -12.54151601	      0.43636075	     -9.68424828	      4.08968682	      2.37174830	     10.11647538	    -13.67526986	      0.61053143	     33.44922703	     42.81073254	      0.00000000	      0.00000000	     16.90747507	    -15.97068213	     -6.28844455	     35.33012748	     43.47236249	      0.00000000	      0.00000000
     44.22550000	     -2.88145771	     -5.00576633	      1.83883625	      1.07658668	      0.93062392	      0.39585647	     25.13501753	     -6.58041978	     -5.06058160	     64.12856942	     64.12856942	     -2.12745602	    -14.61202069	     -3.62926456	     17.48471873	     -5.69311847	     -6.83981537	     24.84561469	     24.84561469	     12.17853794	    -12.48412316	      0.39493254	     -9.92525373	      4.43497014	      1.83280264	      8.41888534	    -13.35476978	      0.66838996	     32.79014924	     42.83569182	      0.00000000	      0.00000000	     17.86271430	    -16.83935279	     -6.47523878	     35.85794097	     43.52235799	      0.00000000	      0.00000000
     44.23928571	     -2.87793384	     -5.08989111	      1.48628321	      1.07582506	      0.93125175	      0.39497132	     26.42594426	     -6.42480189	     -4.61669243	     64.60140616	     64.60140616	     -2.12302126	    -14.27459849	     -2.81618813	     16.93508916	     -5.82944939	     -7.33278661	     24.59622786	     24.59622786	     12.47757767	    -12.07189129	      0.38369634	    -10.01358444	      4.49262104	      2.38250058	      6.24765581	    -13.34850911	      0.56099688	     31.63946121	     42.92967447	      0.00000000	      0.00000000	     19.09891553	    -17.01772659	     -6.77283586	     37.56642053	     43.62706418	      0.00000000	      0.00000000
     44.25307143	     -2.82894941	     -5.28148382	      1.20612006	      1.07515456	      0.93201977	      0.39416010	     27.46837436	     -6.21011035	     -4.47151779	     64.54619453	     64.54619453	     -1.45917249	    -13.60437634	     -0.67798894	     16.34934166	     -6.06419276	     -7.69980964	     24.36499097	     24.36499097	     12.88158696	    -11.67887650	      0.55403679	    -10.15696745	      4.72118164	      1.97103003	      4.51379917	    -12.90951124	     -0.62741418	     31.27814283	     43.23795146	      0.00000000	      0.00000000	     19.25675364	    -17.81946535	     -7.41426181	     40.21388345	     43.92460536	      0.00000000	      0.00000000
